<?xml version="1.0" encoding="UTF-8" standalone="no"?>
<!DOCTYPE svg PUBLIC "-//W3C//DTD SVG 1.1//EN" "http://www.w3.org/Graphics/SVG/1.1/DTD/svg11.dtd">
<svg version="1.1" xmlns="http://www.w3.org/2000/svg" xmlns:xlink="http://www.w3.org/1999/xlink" preserveAspectRatio="xMidYMid meet" viewBox="0 0 640 640" width="640" height="640"><defs><path d="M628.67 320C628.67 490.56 489.1 629.03 317.18 629.03C145.27 629.03 5.69 490.56 5.69 320C5.69 149.44 145.27 10.97 317.18 10.97C489.1 10.97 628.67 149.44 628.67 320Z" id="c6Tyx25wM"></path><path d="M407.54 555.07L372.83 528.69L347.74 494.62L325.07 463.83L308.95 436.4L303.81 407.28L301.27 373.38L301.91 338.26L303.99 305.11L311.57 278.03L319.65 258.55L323.96 236.72L337.04 215.73L348.77 195.68L365.88 158.02L376.55 133.75L383.46 107.15L367.37 107.44L318.62 201.8L284.21 278.25L269.55 353.84L274.52 404.87L305.53 477.43L334 523.01L377.29 558.28L414.21 575.2L446.69 583.32L485.71 587.88L407.54 555.07Z" id="aiQCZftaT"></path><path d="M285.54 415.68L204.86 377.56L229.66 415.7L289.68 434.1L285.54 415.68Z" id="cMXKnj68z"></path><path d="M279.31 385.96L207.13 334.19L224.37 376.09L279.93 404.82L279.31 385.96Z" id="a6TE3ydUvh"></path><path d="M284.08 354.62L221.12 289.41L221.87 329.76L275.71 370.63L284.08 354.62Z" id="bRvq3VVmx"></path><path d="M287.28 313.72L236.25 239.3L230.14 279.22L276.31 328.16L287.28 313.72Z" id="c56ms9ADeb"></path><path d="M300.03 282.81L265.24 200.02L251.09 237.96L286.33 294.84L300.03 282.81Z" id="c16zmO6Qq"></path><path d="M314.5 246.68L297.08 158.86L275.55 193.38L298.63 255.87L314.5 246.68Z" id="f2tN2En6VA"></path><path d="M334.91 216.72L342.92 127.63L312.48 155.08L317.05 221.33L334.91 216.72Z" id="cRoH76ZV8"></path><path d="M369.76 172.51L404.25 89.6L366.87 107.19L351.3 171.84L369.76 172.51Z" id="a2ggYppCGL"></path><path d="M298.7 409.08L384.2 382.96L362.13 417.15L296.94 426.73L298.7 409.08Z" id="d4fE4Nbwfk"></path><path d="M291.29 386.32L369.8 344.3L355.1 382.05L293.14 403.96L291.29 386.32Z" id="b2pZImNj5X"></path><path d="M296.84 353.17L374.41 309.53L360.54 347.57L299.08 370.76L296.84 353.17Z" id="a86EyBblP"></path><path d="M298.44 323.87L372.12 274.26L361.47 313.27L302.15 341.23L298.44 323.87Z" id="ffX2lfnx5"></path><path d="M300.31 286.85L373.62 236.73L363.26 275.82L304.15 304.19L300.31 286.85Z" id="bunBs0Vdi"></path><path d="M307.53 244.87L380.84 194.74L370.48 233.83L311.36 262.2L307.53 244.87Z" id="bjpJJEAoe"></path><path d="M330.91 198.61L395.4 138.11L391.36 178.28L337.45 215.16L330.91 198.61Z" id="a1VHTI2OBN"></path><path d="M180.54 596.57L629.08 320.99L785.47 561.48L336.93 837.06L180.54 596.57Z" id="c1jJVfx6SQ"></path></defs><g><g><g><use xlink:href="#c6Tyx25wM" opacity="1" fill="#ff0000" fill-opacity="1"></use></g><g><use xlink:href="#aiQCZftaT" opacity="1" fill="#eab60c" fill-opacity="1"></use></g><g><use xlink:href="#cMXKnj68z" opacity="1" fill="#eab60c" fill-opacity="1"></use></g><g><use xlink:href="#a6TE3ydUvh" opacity="1" fill="#eab60c" fill-opacity="1"></use></g><g><use xlink:href="#bRvq3VVmx" opacity="1" fill="#eab60c" fill-opacity="1"></use></g><g><use xlink:href="#c56ms9ADeb" opacity="1" fill="#eab60c" fill-opacity="1"></use></g><g><use xlink:href="#c16zmO6Qq" opacity="1" fill="#eab60c" fill-opacity="1"></use></g><g><use xlink:href="#f2tN2En6VA" opacity="1" fill="#eab60c" fill-opacity="1"></use></g><g><use xlink:href="#cRoH76ZV8" opacity="1" fill="#eab60c" fill-opacity="1"></use></g><g><use xlink:href="#a2ggYppCGL" opacity="1" fill="#eab60c" fill-opacity="1"></use></g><g><use xlink:href="#d4fE4Nbwfk" opacity="1" fill="#eab60c" fill-opacity="1"></use></g><g><use xlink:href="#b2pZImNj5X" opacity="1" fill="#eab60c" fill-opacity="1"></use></g><g><use xlink:href="#a86EyBblP" opacity="1" fill="#eab60c" fill-opacity="1"></use></g><g><use xlink:href="#ffX2lfnx5" opacity="1" fill="#eab60c" fill-opacity="1"></use></g><g><use xlink:href="#bunBs0Vdi" opacity="1" fill="#eab60c" fill-opacity="1"></use></g><g><use xlink:href="#bjpJJEAoe" opacity="1" fill="#eab60c" fill-opacity="1"></use></g><g><use xlink:href="#a1VHTI2OBN" opacity="1" fill="#eab60c" fill-opacity="1"></use></g><g><use xlink:href="#c1jJVfx6SQ" opacity="1" fill="#ff0000" fill-opacity="1"></use></g></g></g></svg>