<?xml version="1.0" encoding="UTF-8" standalone="no"?>
<!DOCTYPE svg PUBLIC "-//W3C//DTD SVG 1.1//EN" "http://www.w3.org/Graphics/SVG/1.1/DTD/svg11.dtd">
<svg version="1.1" xmlns="http://www.w3.org/2000/svg" xmlns:xlink="http://www.w3.org/1999/xlink" preserveAspectRatio="xMidYMid meet" viewBox="0 0 640 640" width="640" height="640"><defs><path d="M634.66 320C634.66 491.92 493.66 631.49 320 631.49C146.34 631.49 5.34 491.92 5.34 320C5.34 148.08 146.34 8.51 320 8.51C493.66 8.51 634.66 148.08 634.66 320Z" id="csJx0SRei"></path><path d="M383.35 481.2L383.35 324.93L383.35 262.98L281.99 324.93L281.99 262.98L177.1 324.93L177.1 262.98L73.62 324.93L73.62 481.2L383.35 481.2Z" id="niOz0ttvJ"></path><path d="M383.35 137.68L473.46 137.68L473.46 481.2L383.35 481.2L383.35 137.68Z" id="ifSwQWvBz"></path><path d="M482.05 137.68L572.15 137.68L572.15 481.2L482.05 481.2L482.05 137.68Z" id="f1TEaS5zRn"></path><path d="M340.56 339.01L579.19 339.01L579.19 481.2L340.56 481.2L340.56 339.01Z" id="f2Gju6lwR0"></path><path d="M37.02 82.77L166.54 82.77L166.54 109.52L37.02 109.52L37.02 82.77Z" id="a2Iht0befX"></path><path d="M115.42 31.44L114.89 160.97L88.14 160.86L88.67 31.33L115.42 31.44Z" id="a1xNZwMsYI"></path></defs><g><g><g><use xlink:href="#csJx0SRei" opacity="1" fill="#f90000" fill-opacity="1"></use></g><g><use xlink:href="#niOz0ttvJ" opacity="1" fill="#f9c800" fill-opacity="1"></use></g><g><use xlink:href="#ifSwQWvBz" opacity="1" fill="#f9c800" fill-opacity="1"></use></g><g><use xlink:href="#f1TEaS5zRn" opacity="1" fill="#f9c800" fill-opacity="1"></use></g><g><use xlink:href="#f2Gju6lwR0" opacity="1" fill="#f9c800" fill-opacity="1"></use></g><g><use xlink:href="#a2Iht0befX" opacity="1" fill="#f9c800" fill-opacity="1"></use></g><g><use xlink:href="#a1xNZwMsYI" opacity="1" fill="#f9c800" fill-opacity="1"></use></g></g></g></svg>