<?xml version="1.0" encoding="UTF-8" standalone="no"?>
<!DOCTYPE svg PUBLIC "-//W3C//DTD SVG 1.1//EN" "http://www.w3.org/Graphics/SVG/1.1/DTD/svg11.dtd">
<svg version="1.1" xmlns="http://www.w3.org/2000/svg" xmlns:xlink="http://www.w3.org/1999/xlink" preserveAspectRatio="xMidYMid meet" viewBox="0 0 640 640" width="640" height="640"><defs><path d="M325.49 135.1L544.3 135.1L544.3 362.2L325.49 362.2L325.49 135.1Z" id="d8ENgcnAY"></path><path d="M265.8 410.81L361.53 410.81L361.53 580.46L265.8 580.46L265.8 410.81Z" id="b3vy7o03z"></path><path d="M383.35 538.92C383.35 568.06 358.75 591.72 328.45 591.72C298.14 591.72 273.54 568.06 273.54 538.92C273.54 509.79 298.14 486.13 328.45 486.13C358.75 486.13 383.35 509.79 383.35 538.92Z" id="b1PJLZv6vV"></path><path d="M239.35 348.07L326.84 321.47L363.46 441.92L275.97 468.52L239.35 348.07Z" id="a7tEBd33f"></path><path d="M547.27 128.27L541.32 128.27L541.32 365.62L547.27 365.62L547.27 128.27Z" id="h2KvCcLYkQ"></path><path d="M101.78 380.54L273.54 380.54L273.54 600.17L101.78 600.17L101.78 380.54Z" id="b1bxSjIakO"></path><path d="M291.72 358.78L547.27 358.78L547.27 365.62L291.72 365.62L291.72 358.78Z" id="abLVeyd97"></path><path d="M101.78 94.74L337.6 94.74L337.6 384.06L101.78 384.06L101.78 94.74Z" id="bHvTU4Vwn"></path><path d="M383.35 433.33C383.35 462.47 358.75 486.13 328.45 486.13C298.14 486.13 273.54 462.47 273.54 433.33C273.54 404.19 298.14 380.54 328.45 380.54C358.75 380.54 383.35 404.19 383.35 433.33Z" id="a2GCSAtOLb"></path><path d="M291.72 128.27L547.27 128.27L547.27 135.1L291.72 135.1L291.72 128.27Z" id="aunW8b3uz"></path><path d="M374.2 538.92C374.2 563.01 354.49 582.57 330.21 582.57C305.93 582.57 286.21 563.01 286.21 538.92C286.21 514.84 305.93 495.28 330.21 495.28C354.49 495.28 374.2 514.84 374.2 538.92Z" id="a2SxPmH51"></path><path d="M374.2 433.33C374.2 457.42 354.49 476.98 330.21 476.98C305.93 476.98 286.21 457.42 286.21 433.33C286.21 409.25 305.93 389.69 330.21 389.69C354.49 389.69 374.2 409.25 374.2 433.33Z" id="a4EQPGfSel"></path></defs><g><g><g><use xlink:href="#d8ENgcnAY" opacity="1" fill="#274426" fill-opacity="1"></use></g><g><use xlink:href="#b3vy7o03z" opacity="1" fill="#272727" fill-opacity="1"></use></g><g><use xlink:href="#b1PJLZv6vV" opacity="1" fill="#6e6e6e" fill-opacity="1"></use></g><g><use xlink:href="#a7tEBd33f" opacity="1" fill="#272727" fill-opacity="1"></use></g><g><use xlink:href="#h2KvCcLYkQ" opacity="1" fill="#9f2e11" fill-opacity="1"></use></g><g><use xlink:href="#b1bxSjIakO" opacity="1" fill="#9f2e11" fill-opacity="1"></use></g><g><use xlink:href="#abLVeyd97" opacity="1" fill="#9f2e11" fill-opacity="1"></use></g><g><use xlink:href="#bHvTU4Vwn" opacity="1" fill="#9f2e11" fill-opacity="1"></use></g><g><use xlink:href="#a2GCSAtOLb" opacity="1" fill="#6e6e6e" fill-opacity="1"></use></g><g><use xlink:href="#aunW8b3uz" opacity="1" fill="#9f2e11" fill-opacity="1"></use></g><g><use xlink:href="#a2SxPmH51" opacity="1" fill="#000000" fill-opacity="1"></use></g><g><use xlink:href="#a4EQPGfSel" opacity="1" fill="#000000" fill-opacity="1"></use></g></g></g></svg>