<?xml version="1.0" encoding="UTF-8" standalone="no"?>
<!DOCTYPE svg PUBLIC "-//W3C//DTD SVG 1.1//EN" "http://www.w3.org/Graphics/SVG/1.1/DTD/svg11.dtd">
<svg version="1.1" xmlns="http://www.w3.org/2000/svg" xmlns:xlink="http://www.w3.org/1999/xlink" preserveAspectRatio="xMidYMid meet" viewBox="0 0 640 640" width="640" height="640"><defs><path d="M223.73 293.58L495.9 293.58L495.9 534.26L223.73 534.26L223.73 293.58Z" id="b1vUAXqPKs"></path><path d="M228.05 293.58L490.71 293.58L490.71 526.71L228.05 526.71L228.05 293.58Z" id="a3o5bpgI75"></path><path d="M238.95 293.62L255.37 293.6L255.59 517.5L239.18 517.52L238.95 293.62Z" id="h2st3oeHlv"></path><path d="M263.57 293.62L279.99 293.6L280.22 517.5L263.8 517.52L263.57 293.62Z" id="b1xv5yZifs"></path><path d="M289.49 293.6L305.91 293.58L306.14 517.49L289.72 517.5L289.49 293.6Z" id="iu8WRO3Y0"></path><path d="M313.25 293.61L329.67 293.59L329.9 517.5L313.48 517.51L313.25 293.61Z" id="iACmmisqp"></path><path d="M338.74 293.63L355.16 293.62L355.39 517.52L338.97 517.53L338.74 293.63Z" id="aSG9JR566"></path><path d="M363.37 293.63L379.79 293.62L380.01 517.52L363.6 517.53L363.37 293.63Z" id="b4DLRfSErR"></path><path d="M159.79 105.74L495.9 105.74L495.9 296.1L159.79 296.1L159.79 105.74Z" id="c8DJ6j6zeP"></path><path d="M389.29 293.62L405.71 293.6L405.94 517.5L389.52 517.52L389.29 293.62Z" id="a1A2h5QJ1S"></path><path d="M413.05 293.62L429.47 293.61L429.7 517.51L413.28 517.53L413.05 293.62Z" id="e7DZeltgp"></path><path d="M438.54 293.65L454.96 293.63L455.18 517.53L438.77 517.55L438.54 293.65Z" id="anyfdk5N3"></path><path d="M463.16 293.65L479.58 293.63L479.81 517.53L463.39 517.55L463.16 293.65Z" id="b3R77YHEoG"></path><path d="M159.79 105.74L495.9 105.74L495.9 296.1L159.79 296.1L159.79 105.74Z" id="c1juYiElwq"></path><path d="M169.25 494.18C169.25 517.56 158.05 536.53 144.25 536.53C130.45 536.53 119.25 517.56 119.25 494.18C119.25 470.81 130.45 451.84 144.25 451.84C158.05 451.84 169.25 470.81 169.25 494.18Z" id="b30HK4CzIh"></path><path d="M175.88 455C175.88 467.67 161.71 477.96 144.25 477.96C126.79 477.96 112.62 467.67 112.62 455C112.62 442.33 126.79 432.04 144.25 432.04C161.71 432.04 175.88 442.33 175.88 455Z" id="aEXTjiLzO"></path></defs><g><g><g><use xlink:href="#b1vUAXqPKs" opacity="1" fill="#57240e" fill-opacity="1"></use></g><g><use xlink:href="#a3o5bpgI75" opacity="1" fill="#56570e" fill-opacity="1"></use></g><g><use xlink:href="#h2st3oeHlv" opacity="1" fill="#d4b515" fill-opacity="1"></use></g><g><use xlink:href="#b1xv5yZifs" opacity="1" fill="#d4b515" fill-opacity="1"></use></g><g><use xlink:href="#iu8WRO3Y0" opacity="1" fill="#d4b515" fill-opacity="1"></use></g><g><use xlink:href="#iACmmisqp" opacity="1" fill="#d4b515" fill-opacity="1"></use></g><g><use xlink:href="#aSG9JR566" opacity="1" fill="#d4b515" fill-opacity="1"></use></g><g><use xlink:href="#b4DLRfSErR" opacity="1" fill="#d4b515" fill-opacity="1"></use></g><g><use xlink:href="#c8DJ6j6zeP" opacity="1" fill="#c86904" fill-opacity="1"></use></g><g><use xlink:href="#a1A2h5QJ1S" opacity="1" fill="#d4b515" fill-opacity="1"></use></g><g><use xlink:href="#e7DZeltgp" opacity="1" fill="#d4b515" fill-opacity="1"></use></g><g><use xlink:href="#anyfdk5N3" opacity="1" fill="#d4b515" fill-opacity="1"></use></g><g><use xlink:href="#b3R77YHEoG" opacity="1" fill="#d4b515" fill-opacity="1"></use></g><g><use xlink:href="#c1juYiElwq" opacity="1" fill="#c86904" fill-opacity="1"></use></g><g><use xlink:href="#b30HK4CzIh" opacity="1" fill="#d99fe3" fill-opacity="1"></use></g><g><use xlink:href="#aEXTjiLzO" opacity="1" fill="#d99fe3" fill-opacity="1"></use></g></g></g></svg>