<?xml version="1.0" encoding="UTF-8" standalone="no"?>
<!DOCTYPE svg PUBLIC "-//W3C//DTD SVG 1.1//EN" "http://www.w3.org/Graphics/SVG/1.1/DTD/svg11.dtd">
<svg version="1.1" xmlns="http://www.w3.org/2000/svg" xmlns:xlink="http://www.w3.org/1999/xlink" preserveAspectRatio="xMidYMid meet" viewBox="0 0 640 640" width="640" height="640"><defs><path d="M630.49 319.48C630.49 489.65 491.21 627.81 319.65 627.81C148.1 627.81 8.82 489.65 8.82 319.48C8.82 149.3 148.1 11.14 319.65 11.14C491.21 11.14 630.49 149.3 630.49 319.48Z" id="e3RLcWQTbO"></path><path d="M129.01 294.69L232.54 233.43L331.13 294.69L331.13 467.93L129.01 467.93L129.01 294.69Z" id="aZSvy0ZQO"></path><path d="M327.28 414.91L534.15 414.91L534.15 467.93L327.28 467.93L327.28 414.91Z" id="bZkZNlyXD"></path><path d="M348.27 394.91L340.03 406.91L334.03 434.91L348.27 394.91Z" id="a28AQ9RJxW"></path><path d="M355.4 394.91L347.15 406.91L341.15 434.91L355.4 394.91Z" id="bfG9IeblL"></path><path d="M372.27 394.91L364.03 406.91L358.03 434.91L372.27 394.91Z" id="emgBwOGfe"></path><path d="M362.52 394.91L354.27 406.91L348.27 434.91L362.52 394.91Z" id="a2L3Zj5RI"></path><path d="M379.4 394.91L371.15 406.91L365.15 434.91L379.4 394.91Z" id="iv7o2UXdd"></path><path d="M386.52 394.91L378.27 406.91L372.27 434.91L386.52 394.91Z" id="aLx02D5Au"></path><path d="M403.4 394.91L395.15 406.91L389.15 434.91L403.4 394.91Z" id="h8sd7dZhQF"></path><path d="M393.64 394.91L385.4 406.91L379.4 434.91L393.64 394.91Z" id="bL5C9h1JA"></path><path d="M412.06 394.91L403.82 406.91L397.82 434.91L412.06 394.91Z" id="b4phPPVYQH"></path><path d="M419.18 394.91L410.94 406.91L404.94 434.91L419.18 394.91Z" id="i1uXC5dg4n"></path><path d="M436.06 394.91L427.82 406.91L421.82 434.91L436.06 394.91Z" id="b4c746Vxm"></path><path d="M426.3 394.91L418.06 406.91L412.06 434.91L426.3 394.91Z" id="a13uTVg8Se"></path><path d="M445.4 394.91L437.15 406.91L431.15 434.91L445.4 394.91Z" id="a1kXQELqbI"></path><path d="M452.52 394.91L444.27 406.91L438.27 434.91L452.52 394.91Z" id="acyMI5QrL"></path><path d="M469.4 394.91L461.15 406.91L455.15 434.91L469.4 394.91Z" id="bdRu5Pzdl"></path><path d="M459.64 394.91L451.4 406.91L445.4 434.91L459.64 394.91Z" id="d1lwb7cbUV"></path><path d="M478.06 394.91L469.82 406.91L463.82 434.91L478.06 394.91Z" id="a6mzndcqwj"></path><path d="M485.18 394.91L476.94 406.91L470.94 434.91L485.18 394.91Z" id="bRU8vQ8Il"></path><path d="M502.06 394.91L493.82 406.91L487.82 434.91L502.06 394.91Z" id="e6qJWBJoau"></path><path d="M492.3 394.91L484.06 406.91L478.06 434.91L492.3 394.91Z" id="b2jxUPmRIU"></path><path d="M510.73 394.91L502.49 406.91L496.49 434.91L510.73 394.91Z" id="c5c0GCDwn"></path><path d="M519.4 394.91L511.15 406.91L505.15 434.91L519.4 394.91Z" id="a1iW7h21is"></path><path d="M526.52 394.91L518.27 406.91L512.27 434.91L526.52 394.91Z" id="a5lC2vZac"></path><path d="M533.64 394.91L525.4 406.91L519.4 434.91L533.64 394.91Z" id="a35qDc8Bc"></path><path d="M102.06 37.94L121.41 37.94L121.41 146.54L102.06 146.54L102.06 37.94Z" id="f1hRNem3xj"></path><path d="M166.02 82.49L166.05 101.85L57.44 101.98L57.42 82.63L166.02 82.49Z" id="aKfqMbppz"></path></defs><g><g><g><use xlink:href="#e3RLcWQTbO" opacity="1" fill="#ff0000" fill-opacity="1"></use></g><g><use xlink:href="#aZSvy0ZQO" opacity="1" fill="#ffb100" fill-opacity="1"></use></g><g><use xlink:href="#bZkZNlyXD" opacity="1" fill="#ffb100" fill-opacity="1"></use></g><g><use xlink:href="#a28AQ9RJxW" opacity="1" fill="#ffb100" fill-opacity="1"></use></g><g><use xlink:href="#bfG9IeblL" opacity="1" fill="#ffb100" fill-opacity="1"></use></g><g><use xlink:href="#emgBwOGfe" opacity="1" fill="#ffb100" fill-opacity="1"></use></g><g><use xlink:href="#a2L3Zj5RI" opacity="1" fill="#ffb100" fill-opacity="1"></use></g><g><use xlink:href="#iv7o2UXdd" opacity="1" fill="#ffb100" fill-opacity="1"></use></g><g><use xlink:href="#aLx02D5Au" opacity="1" fill="#ffb100" fill-opacity="1"></use></g><g><use xlink:href="#h8sd7dZhQF" opacity="1" fill="#ffb100" fill-opacity="1"></use></g><g><use xlink:href="#bL5C9h1JA" opacity="1" fill="#ffb100" fill-opacity="1"></use></g><g><use xlink:href="#b4phPPVYQH" opacity="1" fill="#ffb100" fill-opacity="1"></use></g><g><use xlink:href="#i1uXC5dg4n" opacity="1" fill="#ffb100" fill-opacity="1"></use></g><g><use xlink:href="#b4c746Vxm" opacity="1" fill="#ffb100" fill-opacity="1"></use></g><g><use xlink:href="#a13uTVg8Se" opacity="1" fill="#ffb100" fill-opacity="1"></use></g><g><use xlink:href="#a1kXQELqbI" opacity="1" fill="#ffb100" fill-opacity="1"></use></g><g><use xlink:href="#acyMI5QrL" opacity="1" fill="#ffb100" fill-opacity="1"></use></g><g><use xlink:href="#bdRu5Pzdl" opacity="1" fill="#ffb100" fill-opacity="1"></use></g><g><use xlink:href="#d1lwb7cbUV" opacity="1" fill="#ffb100" fill-opacity="1"></use></g><g><use xlink:href="#a6mzndcqwj" opacity="1" fill="#ffb100" fill-opacity="1"></use></g><g><use xlink:href="#bRU8vQ8Il" opacity="1" fill="#ffb100" fill-opacity="1"></use></g><g><use xlink:href="#e6qJWBJoau" opacity="1" fill="#ffb100" fill-opacity="1"></use></g><g><use xlink:href="#b2jxUPmRIU" opacity="1" fill="#ffb100" fill-opacity="1"></use></g><g><use xlink:href="#c5c0GCDwn" opacity="1" fill="#ffb100" fill-opacity="1"></use></g><g><use xlink:href="#a1iW7h21is" opacity="1" fill="#ffb100" fill-opacity="1"></use></g><g><use xlink:href="#a5lC2vZac" opacity="1" fill="#ffb100" fill-opacity="1"></use></g><g><use xlink:href="#a35qDc8Bc" opacity="1" fill="#ffb100" fill-opacity="1"></use></g><g><use xlink:href="#f1hRNem3xj" opacity="1" fill="#ffb100" fill-opacity="1"></use></g><g><use xlink:href="#aKfqMbppz" opacity="1" fill="#ffb100" fill-opacity="1"></use></g></g></g></svg>