<?xml version="1.0" encoding="UTF-8" standalone="no"?>
<!DOCTYPE svg PUBLIC "-//W3C//DTD SVG 1.1//EN" "http://www.w3.org/Graphics/SVG/1.1/DTD/svg11.dtd">
<svg version="1.1" xmlns="http://www.w3.org/2000/svg" xmlns:xlink="http://www.w3.org/1999/xlink" preserveAspectRatio="xMidYMid meet" viewBox="0 0 640 640" width="640" height="640"><defs><path d="M634.64 320C634.64 489.9 494.7 627.84 322.33 627.84C149.96 627.84 10.01 489.9 10.01 320C10.01 150.1 149.96 12.16 322.33 12.16C494.7 12.16 634.64 150.1 634.64 320Z" id="aytymk373"></path><path d="M338.37 239.04L588.37 409.93L541.36 472.62L291.36 294.26L338.37 239.04Z" id="cby30zZjL"></path><path d="M298.82 123.36L389.86 185.3L245.09 350.23L154.79 280.08L298.82 123.36Z" id="b7pgXQLGZ"></path><path d="M112.46 516.14L194.93 425.78L233.39 452.91L301.01 487.07L375.55 492.79L443.66 479.56L492.41 437.29L524.99 392.06L546.02 337.7L555.89 287.83L552.12 233.08L542.59 187.32L514.98 136.07L471.09 99.15L419.08 82.96L359.21 96.58L407.39 107.72L447.73 132.1L476.4 164.66L487.48 204.61L483.63 254.55L467.54 305.82L440.7 358.62L408.7 394.15L378.39 411.83L343.09 422.04L307.23 425.4L264.35 419.51L221.35 392.5L180.02 358.95L161.03 360.11L148.03 377.91L153.06 390.65L68.34 475.42L112.46 516.14Z" id="b4tP4Mp8NX"></path></defs><g><g><g><use xlink:href="#aytymk373" opacity="1" fill="#ce0000" fill-opacity="1"></use></g><g><use xlink:href="#cby30zZjL" opacity="1" fill="#eaae0a" fill-opacity="1"></use></g><g><use xlink:href="#b7pgXQLGZ" opacity="1" fill="#eaae0a" fill-opacity="1"></use></g><g><use xlink:href="#b4tP4Mp8NX" opacity="1" fill="#eaae0a" fill-opacity="1"></use></g></g></g></svg>