<?xml version="1.0" encoding="UTF-8" standalone="no"?>
<!DOCTYPE svg PUBLIC "-//W3C//DTD SVG 1.1//EN" "http://www.w3.org/Graphics/SVG/1.1/DTD/svg11.dtd">
<svg version="1.1" xmlns="http://www.w3.org/2000/svg" xmlns:xlink="http://www.w3.org/1999/xlink" preserveAspectRatio="xMidYMid meet" viewBox="0 0 640 640" width="640" height="640"><defs><path d="M628.17 312.32C628.17 484.7 487.43 624.65 314.08 624.65C140.74 624.65 0 484.7 0 312.32C0 139.95 140.74 0 314.08 0C487.43 0 628.17 139.95 628.17 312.32Z" id="c2eYuNuaKE"></path><path d="M634.79 320.35C634.79 492.73 494.05 632.68 320.7 632.68C147.36 632.68 6.62 492.73 6.62 320.35C6.62 147.98 147.36 8.03 320.7 8.03C494.05 8.03 634.79 147.98 634.79 320.35Z" id="a2FCvauLIG"></path><path d="M91.83 414.37L115.77 410.85L150.28 377.75L315.77 200.28L370.7 155.92L397.46 146.06L424.23 159.44L474.23 100.28L507.32 129.86L458.03 179.15L472.11 200.28L464.37 222.82L420 277.04L241.13 442.54L212.25 479.15L217.18 498.17L177.75 539.72L63.66 432.68L91.83 414.37Z" id="a581JJJPkJ"></path><path d="M48.17 69.3L179.86 69.3L179.86 105.21L48.17 105.21L48.17 69.3Z" id="dXYG7YvGE"></path><path d="M131.49 21.28L132.45 152.96L96.54 153.23L95.57 21.54L131.49 21.28Z" id="b1eCXsKnzJ"></path><path d="M246.76 447.11L378.45 327.39L461.55 327.39L461.55 540.07L246.76 540.07L246.76 447.11Z" id="b6CMWQbt6L"></path><path d="M494.65 540.07L494.65 236.55L459.44 236.55L436.2 265.42L436.2 320.35L468.59 320.35L470 540.07L494.65 540.07Z" id="f8iOU3SaQ"></path></defs><g><g><g><use xlink:href="#c2eYuNuaKE" opacity="1" fill="#ff9f00" fill-opacity="1"></use></g><g><use xlink:href="#a2FCvauLIG" opacity="1" fill="#ff0000" fill-opacity="1"></use></g><g><use xlink:href="#a581JJJPkJ" opacity="1" fill="#ff9f00" fill-opacity="1"></use></g><g><use xlink:href="#dXYG7YvGE" opacity="1" fill="#ff9f00" fill-opacity="1"></use></g><g><use xlink:href="#b1eCXsKnzJ" opacity="1" fill="#ff9f00" fill-opacity="1"></use></g><g><use xlink:href="#b6CMWQbt6L" opacity="1" fill="#ff9f00" fill-opacity="1"></use></g><g><use xlink:href="#f8iOU3SaQ" opacity="1" fill="#ff9f00" fill-opacity="1"></use></g></g></g></svg>