<?xml version="1.0" encoding="UTF-8" standalone="no"?>
<!DOCTYPE svg PUBLIC "-//W3C//DTD SVG 1.1//EN" "http://www.w3.org/Graphics/SVG/1.1/DTD/svg11.dtd">
<svg version="1.1" xmlns="http://www.w3.org/2000/svg" xmlns:xlink="http://www.w3.org/1999/xlink" preserveAspectRatio="xMidYMid meet" viewBox="0 0 640 640" width="640" height="640"><defs><path d="M634.79 320.35C634.79 492.73 494.05 632.68 320.7 632.68C147.36 632.68 6.62 492.73 6.62 320.35C6.62 147.98 147.36 8.03 320.7 8.03C494.05 8.03 634.79 147.98 634.79 320.35Z" id="a2FCvauLIG"></path><path d="M91.83 414.72L115.77 411.2L150.28 378.1L315.77 200.63L370.7 156.27L397.46 146.41L424.23 159.79L474.23 100.63L507.32 130.21L458.03 179.51L472.11 200.63L464.37 223.17L420 277.39L241.13 442.89L212.25 479.51L217.18 498.52L177.75 540.07L63.66 433.03L91.83 414.72Z" id="iaHumeYLD"></path><path d="M48.17 69.3L179.86 69.3L179.86 105.21L48.17 105.21L48.17 69.3Z" id="dXYG7YvGE"></path><path d="M131.49 21.28L132.45 152.96L96.54 153.23L95.57 21.54L131.49 21.28Z" id="b1eCXsKnzJ"></path><path d="M246.76 447.11L378.45 327.39L461.55 327.39L461.55 540.07L246.76 540.07L246.76 447.11Z" id="b6CMWQbt6L"></path><path d="M494.65 540.07L494.65 236.55L459.44 236.55L436.2 265.42L436.2 320.35L468.59 320.35L470 540.07L494.65 540.07Z" id="f8iOU3SaQ"></path></defs><g><g><g><use xlink:href="#a2FCvauLIG" opacity="1" fill="#ff0000" fill-opacity="1"></use></g><g><use xlink:href="#iaHumeYLD" opacity="1" fill="#ff9f00" fill-opacity="1"></use></g><g><use xlink:href="#dXYG7YvGE" opacity="1" fill="#ff9f00" fill-opacity="1"></use></g><g><use xlink:href="#b1eCXsKnzJ" opacity="1" fill="#ff9f00" fill-opacity="1"></use></g><g><use xlink:href="#b6CMWQbt6L" opacity="1" fill="#ff9f00" fill-opacity="1"></use></g><g><use xlink:href="#f8iOU3SaQ" opacity="1" fill="#ff9f00" fill-opacity="1"></use></g></g></g></svg>