<?xml version="1.0" encoding="UTF-8" standalone="no"?>
<!DOCTYPE svg PUBLIC "-//W3C//DTD SVG 1.1//EN" "http://www.w3.org/Graphics/SVG/1.1/DTD/svg11.dtd">
<svg version="1.1" xmlns="http://www.w3.org/2000/svg" xmlns:xlink="http://www.w3.org/1999/xlink" preserveAspectRatio="xMidYMid meet" viewBox="0 0 640 640" width="640" height="640"><defs><path d="M169.29 166.34L350.97 166.34L350.97 437.75L169.29 437.75L169.29 166.34Z" id="aKBtcPkp"></path><path d="M368.02 197.48L395.46 197.48L395.46 249.39L368.02 249.39L368.02 197.48Z" id="b5QOMuHzF1"></path><path d="M408.81 154.47L462.2 154.47L462.2 184.88L408.81 184.88L408.81 154.47Z" id="anlsOWuoQ"></path><path d="M416.22 271.64L459.97 271.64L459.97 303.52L416.22 303.52L416.22 271.64Z" id="bS7A4fFQI"></path><path d="M436.24 284.62C436.24 313.88 412.15 337.64 382.48 337.64C352.81 337.64 328.72 313.88 328.72 284.62C328.72 255.35 352.81 231.59 382.48 231.59C412.15 231.59 436.24 255.35 436.24 284.62Z" id="d4ZLJ1FyOE"></path><path d="M436.24 170.42C436.24 199.68 412.15 223.44 382.48 223.44C352.81 223.44 328.72 199.68 328.72 170.42C328.72 141.15 352.81 117.4 382.48 117.4C412.15 117.4 436.24 141.15 436.24 170.42Z" id="aybLDJkFx"></path><path d="M340.58 342.09L491.12 342.09L491.12 437.75L340.58 437.75L340.58 342.09Z" id="a151z2PQQ2"></path><path d="M481.12 420.69C486.64 420.69 491.12 425.17 491.12 430.69C491.12 439.22 491.12 454.81 491.12 463.34C491.12 468.86 486.64 473.34 481.12 473.34C418.75 473.34 241.65 473.34 179.29 473.34C173.76 473.34 169.29 468.86 169.29 463.34C169.29 454.81 169.29 439.22 169.29 430.69C169.29 425.17 173.76 420.69 179.29 420.69C241.65 420.69 418.75 420.69 481.12 420.69Z" id="c1eeOORJNm"></path><path d="M287.57 146.32C293.1 146.32 297.57 150.79 297.57 156.32C297.57 159.8 297.57 160.27 297.57 163.75C297.57 169.28 293.1 173.75 287.57 173.75C263.92 173.75 202.94 173.75 179.29 173.75C173.76 173.75 169.29 169.28 169.29 163.75C169.29 160.27 169.29 159.8 169.29 156.32C169.29 150.79 173.76 146.32 179.29 146.32C202.94 146.32 263.92 146.32 287.57 146.32Z" id="a2aZ5tF2Be"></path><path d="M486.3 337.64C488.96 337.64 491.12 339.79 491.12 342.46C491.12 343.42 491.12 341.49 491.12 342.46C491.12 345.12 488.96 347.28 486.3 347.28C456.12 347.28 370.39 347.28 340.21 347.28C337.55 347.28 335.39 345.12 335.39 342.46C335.39 341.49 335.39 343.42 335.39 342.46C335.39 339.79 337.55 337.64 340.21 337.64C370.39 337.64 456.12 337.64 486.3 337.64Z" id="aJPLRsYqS"></path><path d="M477.29 419.21C484.93 419.21 491.12 425.4 491.12 433.04C491.12 449.4 491.12 484.67 491.12 501.04C491.12 508.67 484.93 514.87 477.29 514.87C429.18 514.87 298.7 514.87 250.6 514.87C242.96 514.87 236.77 508.67 236.77 501.04C236.77 484.67 236.77 449.4 236.77 433.04C236.77 425.4 242.96 419.21 250.6 419.21C298.7 419.21 429.18 419.21 477.29 419.21Z" id="e8cF0AJo0"></path><path d="M177.82 374.71C183.35 374.71 187.82 379.19 187.82 384.71C187.82 398.14 187.82 428.41 187.82 441.83C187.82 447.36 183.35 451.83 177.82 451.83C172.41 451.83 166.16 451.83 160.75 451.83C155.22 451.83 150.75 447.36 150.75 441.83C150.75 428.41 150.75 398.14 150.75 384.71C150.75 379.19 155.22 374.71 160.75 374.71C166.16 374.71 172.41 374.71 177.82 374.71Z" id="hFOjwQjpL"></path><path d="M177.82 287.58C183.35 287.58 187.82 292.06 187.82 297.58C187.82 311.01 187.82 341.28 187.82 354.7C187.82 360.23 183.35 364.7 177.82 364.7C172.41 364.7 166.16 364.7 160.75 364.7C155.22 364.7 150.75 360.23 150.75 354.7C150.75 341.28 150.75 311.01 150.75 297.58C150.75 292.06 155.22 287.58 160.75 287.58C166.16 287.58 172.41 287.58 177.82 287.58Z" id="fgfhvtHwW"></path><path d="M175.96 197.48C181.48 197.48 185.96 201.96 185.96 207.48C185.96 220.91 185.96 251.18 185.96 264.6C185.96 270.13 181.48 274.6 175.96 274.6C170.54 274.6 164.3 274.6 158.88 274.6C153.36 274.6 148.88 270.13 148.88 264.6C148.88 251.18 148.88 220.91 148.88 207.48C148.88 201.96 153.36 197.48 158.88 197.48C164.3 197.48 170.54 197.48 175.96 197.48Z" id="d3QEOTcsHp"></path></defs><g><g><g><use xlink:href="#aKBtcPkp" opacity="1" fill="#ae2a09" fill-opacity="1"></use></g><g><use xlink:href="#b5QOMuHzF1" opacity="1" fill="#838383" fill-opacity="1"></use></g><g><use xlink:href="#anlsOWuoQ" opacity="1" fill="#838383" fill-opacity="1"></use></g><g><use xlink:href="#bS7A4fFQI" opacity="1" fill="#838383" fill-opacity="1"></use></g><g><use xlink:href="#d4ZLJ1FyOE" opacity="1" fill="#aaaaaa" fill-opacity="1"></use></g><g><use xlink:href="#aybLDJkFx" opacity="1" fill="#aaaaaa" fill-opacity="1"></use></g><g><use xlink:href="#a151z2PQQ2" opacity="1" fill="#ae2a09" fill-opacity="1"></use></g><g><use xlink:href="#c1eeOORJNm" opacity="1" fill="#ae2a09" fill-opacity="1"></use></g><g><use xlink:href="#a2aZ5tF2Be" opacity="1" fill="#ae2a09" fill-opacity="1"></use></g><g><use xlink:href="#aJPLRsYqS" opacity="1" fill="#ae2a09" fill-opacity="1"></use></g><g><use xlink:href="#e8cF0AJo0" opacity="1" fill="#ae2a09" fill-opacity="1"></use></g><g><use xlink:href="#hFOjwQjpL" opacity="1" fill="#ae2a09" fill-opacity="1"></use></g><g><use xlink:href="#fgfhvtHwW" opacity="1" fill="#ae2a09" fill-opacity="1"></use></g><g><use xlink:href="#d3QEOTcsHp" opacity="1" fill="#ae2a09" fill-opacity="1"></use></g></g></g></svg>